<svg width="48" height="33" viewBox="0 0 48 33" fill="none" xmlns="http://www.w3.org/2000/svg">
<path d="M47.439 20.2199C46.9444 19.3121 46.313 18.5012 45.5604 17.7901C45.2032 17.4528 44.8874 17.0746 44.4968 16.7675C44.1914 16.5278 43.9091 16.2579 43.5944 16.0257C43.5282 15.9766 43.3423 15.9168 43.4948 15.7374C44.0858 15.0435 44.5222 14.251 44.8961 13.4251C45.1789 12.7996 45.3589 12.1568 45.2107 11.4532C45.1116 10.9834 44.8029 10.6208 44.3277 10.533C43.9996 10.4727 43.6666 10.4975 43.3353 10.5282C42.8181 10.5767 42.33 10.734 41.8171 10.9511C41.9625 10.63 42.087 10.3488 42.2163 10.0697C42.775 8.86127 43.248 7.61889 43.581 6.33073C43.8051 5.46387 43.9279 4.57653 43.971 3.67681C44.0007 3.06209 44.0448 2.45114 43.9678 1.8375C43.8708 1.06761 43.3768 0.64792 42.6053 0.697486C41.9749 0.737892 41.4518 1.05845 40.9464 1.38817C40.2024 1.87359 39.5807 2.50609 38.9703 3.14667C38.528 3.61108 38.1654 4.13691 37.8577 4.69506C37.7408 4.90787 37.6622 4.89332 37.4806 4.79796C33.684 2.80564 29.6579 1.60314 25.3721 1.30305C23.7396 1.18883 22.1099 1.23732 20.4861 1.42427C18.2222 1.68449 16.0187 2.20708 13.8825 3.0066C12.7323 3.43706 11.616 3.94134 10.5428 4.53828C10.1748 4.74301 10.1867 4.74032 9.96039 4.39066C9.74866 4.0631 9.53477 3.7323 9.28371 3.43545C8.71856 2.76631 8.08605 2.16237 7.37867 1.643C6.8356 1.24432 6.26883 0.876892 5.60023 0.725501C4.8589 0.557409 4.31152 0.861806 4.08309 1.55626C3.99797 1.81594 3.95217 2.08856 3.94517 2.36386C3.93601 2.73075 3.97211 3.09549 3.99312 3.46131C4.03891 4.25328 4.12242 5.04202 4.29105 5.81298C4.58467 7.15395 5.0604 8.43942 5.61154 9.6958C5.7888 10.0993 5.97036 10.5007 6.14599 10.894C6.0905 10.9457 6.06356 10.9231 6.03016 10.908C5.34594 10.6009 4.62616 10.4792 3.87944 10.5072C3.40749 10.5249 3.05892 10.7378 2.87843 11.1806C2.79762 11.3783 2.76637 11.5917 2.74913 11.8088C2.69202 12.5377 2.97918 13.1746 3.27711 13.8049C3.58905 14.4649 3.97534 15.0823 4.41928 15.6636C4.46723 15.7266 4.68434 15.8155 4.48878 15.954C3.98558 16.3117 3.52386 16.7207 3.06969 17.1355C2.2955 17.8429 1.58542 18.6095 1.01164 19.4931C0.740645 19.8708 0.514906 20.2748 0.336577 20.7026C0.130233 21.1977 -0.0319323 21.7052 0.00470312 22.2537C0.0855166 22.3647 0.190574 22.4266 0.325802 22.4686C1.54716 22.8501 2.77337 23.2137 4.00389 23.565C4.87722 23.8145 5.73438 24.1253 6.61579 24.3398C7.55915 24.5693 8.47989 24.8753 9.42594 25.0951C10.6435 25.3779 11.845 25.7378 13.0857 25.9113C13.5049 25.97 13.7909 26.1742 14.0431 26.5023C14.2796 26.8099 14.4929 27.1321 14.7198 27.4451C15.1098 27.9828 15.5387 28.4909 15.9735 28.9946C16.6749 29.8065 17.4168 30.5748 18.2185 31.2897C19.2372 32.1981 20.4381 32.6237 21.7742 32.767C22.0215 32.7934 22.2182 32.8279 22.5237 32.8602C23.6367 32.8602 24.7498 32.8602 25.8629 32.8602C26.219 32.8149 26.3995 32.7918 26.6678 32.7616C27.5648 32.6608 28.4381 32.4744 29.2296 32.0283C29.7791 31.7186 30.2721 31.3199 30.7262 30.8824C31.6712 29.9714 32.5833 29.0264 33.3295 27.9424C33.7077 27.3929 34.1883 26.9333 34.5756 26.3951C34.72 26.1947 34.8095 25.9345 35.1015 25.8752C35.644 25.7658 36.1871 25.6592 36.7258 25.5353C37.4909 25.3591 38.3766 25.1737 39.1254 24.9345C39.1373 24.9329 39.1486 24.9308 39.1599 24.9275C40.1459 24.6495 41.1285 24.3613 42.1166 24.093C43.1112 23.8231 44.0971 23.5273 45.083 23.2294C45.7694 23.022 46.4682 22.8517 47.147 22.6222C47.4358 22.5247 47.7779 22.5161 47.9966 22.2478C48.0236 21.514 47.7806 20.847 47.439 20.2199ZM28.5405 11.8481C29.2204 11.6957 29.8987 11.5373 30.5996 11.3762C30.5711 11.9316 30.5942 12.4607 30.7106 12.9779C30.8173 13.4531 30.9854 13.9105 31.3733 14.2364C31.814 14.6071 32.1938 14.5602 32.5553 14.1163C32.9631 13.6158 33.0041 13.021 32.9944 12.4128C32.9928 12.3034 32.9588 12.291 32.8479 12.3131C32.495 12.3831 32.2725 12.2177 32.2331 11.8621C32.2013 11.5777 32.2849 11.3126 32.4077 11.0589C32.4459 10.9791 32.509 10.9398 32.593 10.9204C33.6479 10.6796 34.7028 10.4371 35.7593 10.1952C36.0497 12.5658 34.5045 14.7741 32.2509 15.2278C30.8916 15.5014 29.7791 15.0085 29.0728 13.8162C28.7495 13.271 28.5588 12.6751 28.4193 12.0604C28.3913 11.9408 28.4107 11.8778 28.5405 11.8481ZM26.0627 23.0483C26.0638 23.0306 26.0627 23.0123 26.0627 22.9945C26.0552 22.4697 26.3747 22.1125 26.7066 21.7704C27.1354 21.3276 27.6779 21.1067 28.2824 21.035C28.4042 21.0205 28.5367 21.0286 28.6552 21.0603C28.8697 21.118 29.0232 21.2467 29.0194 21.4951C29.0157 21.7543 28.8196 21.8286 28.6235 21.8534C28.2496 21.9008 27.8794 21.9563 27.5185 22.0689C27.1931 22.1707 26.9334 22.3738 26.6877 22.5985C26.5654 22.71 26.5137 22.8549 26.5756 23.0128C26.6301 23.1518 26.6942 23.2838 26.5552 23.4039C26.4636 23.4831 26.3542 23.468 26.2497 23.426C26.0768 23.3565 26.0531 23.21 26.0627 23.0483ZM19.9371 21.0296C20.8255 21.0302 21.8691 21.7376 22.2042 22.5651C22.2591 22.7009 22.2748 22.842 22.2715 23.0079C22.2834 23.1825 22.2807 23.3727 22.0431 23.4416C21.944 23.4707 21.8464 23.4707 21.7667 23.3926C21.6875 23.315 21.6676 23.217 21.7177 23.1216C21.8685 22.8355 21.7231 22.6572 21.5173 22.4762C21.0469 22.0624 20.4731 21.9423 19.88 21.8771C19.4786 21.8329 19.3105 21.7246 19.3154 21.4779C19.3207 21.1972 19.554 21.0291 19.9371 21.0296ZM12.0729 10.1925C12.9607 10.3946 13.8238 10.5977 14.6901 10.783C14.8949 10.8267 14.827 10.9409 14.8119 11.0562C14.6939 11.95 14.7402 12.8238 15.1373 13.653C15.2715 13.9331 15.4557 14.1718 15.7353 14.3237C16.0435 14.4913 16.3226 14.4616 16.5747 14.2197C17.1172 13.6993 17.1765 13.0269 17.1571 12.3314C17.1549 12.2495 17.1221 12.2398 17.038 12.2506C16.5887 12.3104 16.3673 12.0997 16.3926 11.6461C16.3964 11.575 16.4206 11.5049 16.4244 11.4338C16.4346 11.2469 16.503 11.1979 16.6997 11.2458C17.5267 11.4468 18.3575 11.6348 19.1904 11.811C19.4237 11.8605 19.4684 11.9462 19.4086 12.1746C19.2583 12.7495 19.0788 13.3098 18.7734 13.8232C18.0708 15.0031 16.9653 15.4928 15.6173 15.2321C13.7026 14.8614 12.6671 13.6293 12.2409 11.7986C12.1192 11.276 12.0572 10.7453 12.0729 10.1925ZM36.401 21.6433C36.3891 21.8502 36.263 21.9261 36.0863 21.9401C35.8864 21.9558 35.7965 21.8367 35.7744 21.6497C35.7243 21.222 35.4958 20.9009 35.1629 20.646C35.0842 20.5862 34.9835 20.5302 34.8881 20.5776C34.7868 20.6283 34.8477 20.7398 34.8493 20.8217C34.8865 22.7833 34.1199 24.3726 32.634 25.6317C32.593 25.6667 32.5526 25.7028 32.509 25.7335C32.162 25.9776 32.1469 25.976 31.8415 25.671C31.8097 25.6392 31.773 25.6112 31.7472 25.5751C31.627 25.4086 31.5457 25.4221 31.4115 25.5881C30.6616 26.5136 29.8114 27.332 28.7932 27.9656C28.5998 28.0863 28.402 28.1294 28.1795 28.111C27.519 28.0572 26.8919 27.867 26.2853 27.6186C25.6549 27.3606 25.031 27.0815 24.4529 26.7167C24.3193 26.6322 24.2277 26.6413 24.0941 26.7178C23.1034 27.2873 22.0754 27.7657 20.9537 28.0297C20.3767 28.1655 19.8784 28.1078 19.3876 27.7372C18.5589 27.1106 17.8036 26.415 17.1517 25.608C17.0267 25.4534 16.9605 25.4022 16.7967 25.574C16.3764 26.0153 16.3651 26.0088 15.8926 25.6128C14.4929 24.44 13.771 22.9363 13.7031 21.1153C13.7031 21.0075 13.7091 20.8992 13.701 20.7926C13.6956 20.7193 13.7586 20.6196 13.659 20.5765C13.5711 20.5383 13.4812 20.5819 13.4068 20.6347C13.0696 20.8723 12.8438 21.1913 12.7813 21.6007C12.7479 21.82 12.679 21.9644 12.4333 21.9396C12.2065 21.9164 12.1262 21.7833 12.1591 21.507C12.2754 20.5361 13.1374 19.8982 14.0522 20.1046C14.2489 20.1488 14.4014 20.2382 14.3561 20.4666C14.1864 21.3249 14.3356 22.1438 14.6513 22.9411C14.9838 23.7816 15.4853 24.5041 16.1771 25.0924C16.3156 25.2098 16.4039 25.2335 16.5537 25.0924C17.0661 24.6107 17.0655 24.5386 17.5585 25.1748C18.2723 26.0966 19.1263 26.8746 20.1106 27.506C20.2722 27.6095 20.4397 27.6369 20.6235 27.6041C21.1735 27.506 21.708 27.3514 22.2176 27.1251C22.8566 26.8412 23.5037 26.5702 24.0769 26.1602C24.2299 26.0508 24.3495 26.095 24.4923 26.1823C25.4847 26.7884 26.5245 27.2841 27.6629 27.5561C28.0044 27.638 28.2916 27.6122 28.5992 27.4026C29.6045 26.7178 30.4612 25.8854 31.1928 24.9195C31.383 24.6684 31.5047 24.6512 31.7391 24.858C32.2094 25.2734 32.2175 25.281 32.6695 24.8155C33.7007 23.7525 34.2691 22.4929 34.2621 20.9946C34.2616 20.8324 34.2475 20.673 34.2039 20.5157C34.1489 20.3179 34.2222 20.1892 34.4216 20.1234C35.3509 19.8185 36.4564 20.6681 36.401 21.6433Z" fill="#21E6C1"/>
</svg>
